<svg width="434" height="312" viewBox="0 0 434 312" fill="none" xmlns="http://www.w3.org/2000/svg">
<g clip-path="url(#clip0_2102_10)">
<g clip-path="url(#clip1_2102_10)">
<path d="M0.991638 0.678528H433.638V310.453H0.991638V0.678528Z" fill="white"/>
<path d="M246.225 6.43962C198.348 6.96312 187.072 49.07 152.68 89.6375C118.288 130.205 73.5784 135.704 73.5897 177.658C73.6018 219.697 106.948 251.361 148.815 255.335C264.798 266.345 342.96 179.287 342.524 117.018C342.084 55.211 308.056 5.7621 246.225 6.43962ZM148.334 52.0431C154.817 58.917 148.169 75.7989 133.484 89.7482C118.799 103.698 101.637 109.434 95.1536 102.56C88.67 95.6859 95.3181 78.804 110.002 64.8538C124.686 50.9035 141.849 45.1684 148.334 52.0431Z" fill="#FAFAFB"/>
<path d="M197.269 148.168C166.216 133.654 158.386 118.32 161.413 108.812C163.815 101.266 172.57 97.6648 183.719 99.6412L182.27 107.768C175.569 106.583 170.361 108.003 169.307 111.307C167.674 116.442 174.708 128.506 200.787 140.695L197.269 148.168ZM227.018 148.168L223.501 140.695C249.581 128.506 256.614 116.441 254.979 111.307C253.927 108.003 248.718 106.581 242.019 107.768L240.569 99.6412C251.719 97.6648 260.471 101.266 262.874 108.812C265.902 118.321 258.072 133.654 227.018 148.168ZM208.965 179.968H216.233V137.266H208.965V179.968Z" fill="#FCB040"/>
<path d="M171.715 90.02L191.88 144.642C193.05 147.807 194.929 150.662 197.374 152.988C199.819 155.314 202.763 157.049 205.983 158.06C209.203 159.07 212.611 159.33 215.946 158.819C219.281 158.307 222.455 157.039 225.224 155.109C228.929 152.53 231.754 148.876 233.319 144.642L253.485 90.02H171.715ZM217.066 179.967H208.133C200.063 179.967 193.52 186.475 193.52 194.504H231.679C231.679 186.475 225.136 179.967 217.066 179.967Z" fill="#FCB040"/>
<path d="M190.794 201.772H233.496V194.504H190.794V201.772Z" fill="#D18A2C"/>
<path d="M325.216 43.3893C325.225 43.9812 325.057 44.5627 324.734 45.0576C324.411 45.5532 323.946 45.9405 323.4 46.1695C322.765 46.4343 322.058 46.4706 321.401 46.2708C320.743 46.0709 320.175 45.6495 319.793 45.0767C319.412 44.5042 319.242 43.8167 319.312 43.1325C319.383 42.4482 319.69 41.8099 320.18 41.3273C320.592 40.9208 321.115 40.6443 321.684 40.5321C322.252 40.4197 322.841 40.4776 323.378 40.6966C323.914 40.9161 324.374 41.2883 324.701 41.7669C325.027 42.2456 325.206 42.8102 325.216 43.3893ZM350.869 43.3893C350.869 43.9747 350.696 44.547 350.372 45.0343C350.046 45.5214 349.584 45.9013 349.043 46.1254C348.503 46.3495 347.908 46.4082 347.334 46.2941C346.759 46.1799 346.231 45.8978 345.818 45.4842C345.542 45.2099 345.324 44.8837 345.175 44.5246C345.026 44.1656 344.949 43.7808 344.948 43.3921C344.948 43.0034 345.024 42.6185 345.173 42.2593C345.359 41.8095 345.653 41.4126 346.03 41.1038C346.406 40.795 346.853 40.5838 347.33 40.4889C347.904 40.3745 348.499 40.4328 349.04 40.6564C349.58 40.88 350.043 41.259 350.368 41.7453C350.694 42.2316 350.868 42.8044 350.869 43.3893ZM325.216 69.0435C325.216 69.4329 325.14 69.818 324.991 70.1771C324.842 70.5363 324.624 70.8627 324.349 71.1375C324.074 71.4124 323.748 71.6303 323.388 71.7787C323.029 71.9272 322.644 72.0033 322.255 72.0028C321.67 72.0028 321.098 71.8289 320.611 71.5036C320.124 71.1782 319.745 70.7161 319.522 70.1753C319.299 69.6345 319.24 69.0401 319.354 68.4655C319.469 67.8915 319.75 67.3642 320.164 66.9504C320.578 66.5368 321.105 66.2547 321.679 66.1405C322.254 66.0263 322.848 66.0851 323.388 66.3092C323.929 66.533 324.391 66.9121 324.717 67.3986C325.042 67.8849 325.216 68.4569 325.216 69.0418V69.0435ZM350.869 69.0435C350.87 69.7288 350.633 70.3925 350.199 70.9221C349.764 71.4518 349.16 71.8144 348.488 71.9482C347.816 72.082 347.119 71.9787 346.515 71.6559C345.911 71.3331 345.438 70.8107 345.176 70.1779C345.009 69.7738 344.932 69.3377 344.954 68.9008C344.975 68.4638 345.094 68.037 345.3 67.6513C345.506 67.2654 345.795 66.9305 346.146 66.6692C346.498 66.4083 346.903 66.2286 347.332 66.1431C347.76 66.0574 348.203 66.0687 348.627 66.1742C349.052 66.2803 349.447 66.4792 349.786 66.7566C350.124 67.0336 350.397 67.3823 350.584 67.7776C350.771 68.173 350.869 68.6059 350.869 69.0435ZM376.523 69.0435C376.523 69.4321 376.446 69.8171 376.298 70.1762C376.15 70.5353 375.931 70.8615 375.656 71.1367C375.382 71.4115 375.056 71.6294 374.697 71.7779C374.338 71.9266 373.953 72.0032 373.564 72.0032C373.175 72.0032 372.79 71.9266 372.431 71.7779C372.072 71.6294 371.746 71.4115 371.472 71.1367C371.197 70.8615 370.979 70.5353 370.83 70.1762C370.681 69.8171 370.605 69.4321 370.605 69.0435C370.605 68.2587 370.917 67.506 371.472 66.951C372.026 66.396 372.779 66.0842 373.564 66.0842C373.953 66.0842 374.337 66.1608 374.697 66.3095C375.056 66.4582 375.382 66.6762 375.657 66.951C375.931 67.2258 376.149 67.552 376.298 67.9111C376.447 68.2701 376.523 68.6549 376.523 69.0435ZM402.178 69.0435C402.178 69.8284 401.866 70.5811 401.311 71.1361C400.756 71.6911 400.003 72.0028 399.218 72.0028C398.433 72.0028 397.681 71.6911 397.126 71.1361C396.571 70.5811 396.259 69.8284 396.259 69.0435C396.259 68.2587 396.571 67.506 397.126 66.951C397.681 66.396 398.433 66.0842 399.218 66.0842C400.003 66.0842 400.756 66.396 401.311 66.951C401.866 67.506 402.178 68.2587 402.178 69.0435ZM325.216 94.6977C325.216 95.0867 325.14 95.4719 324.991 95.8313C324.842 96.1906 324.624 96.517 324.349 96.7917C324.074 97.0669 323.747 97.2849 323.388 97.4338C323.029 97.5825 322.644 97.6586 322.255 97.6579C321.669 97.6577 321.097 97.484 320.611 97.1586C320.124 96.8333 319.745 96.3712 319.522 95.8304C319.298 95.2897 319.24 94.6949 319.354 94.121C319.469 93.5471 319.75 93.02 320.164 92.6063C320.578 92.1925 321.105 91.9106 321.679 91.7964C322.253 91.6822 322.848 91.741 323.388 91.9651C323.928 92.1892 324.391 92.5682 324.717 93.0545C325.042 93.5408 325.216 94.1128 325.216 94.6977ZM350.869 94.6977C350.869 95.2831 350.696 95.8554 350.371 96.3423C350.046 96.8291 349.584 97.2087 349.043 97.4329C348.502 97.6572 347.907 97.7159 347.333 97.6016C346.759 97.4874 346.231 97.2062 345.818 96.7917C345.542 96.5174 345.324 96.1921 345.175 95.833C345.025 95.4737 344.949 95.0885 344.95 94.6995C344.95 93.9155 345.262 93.1627 345.817 92.6072C346.372 92.0525 347.124 91.7402 347.908 91.7384C348.694 91.7384 349.447 92.0499 350.001 92.6054C350.276 92.8806 350.494 93.2068 350.643 93.5659C350.792 93.9246 350.869 94.3093 350.869 94.6977ZM376.523 94.6977C376.523 95.0871 376.446 95.4713 376.298 95.8304C376.15 96.1895 375.931 96.5157 375.656 96.7909C375.101 97.3456 374.349 97.6571 373.564 97.657C372.779 97.6571 372.027 97.3456 371.472 96.7909C371.197 96.5157 370.979 96.1895 370.83 95.8304C370.681 95.4713 370.605 95.0871 370.605 94.6977C370.605 93.9129 370.917 93.1602 371.472 92.6052C372.026 92.0502 372.779 91.7384 373.564 91.7384C373.953 91.7384 374.337 91.815 374.697 91.9637C375.056 92.1124 375.382 92.3304 375.657 92.6052C375.931 92.88 376.149 93.2062 376.298 93.5652C376.447 93.9243 376.523 94.3091 376.523 94.6977ZM402.178 94.6977C402.178 95.0863 402.101 95.4712 401.952 95.8302C401.804 96.1892 401.586 96.5155 401.311 96.7903C401.036 97.0651 400.71 97.283 400.351 97.4318C399.992 97.5805 399.607 97.657 399.218 97.657C398.433 97.657 397.681 97.3452 397.126 96.7903C396.571 96.2353 396.259 95.4826 396.259 94.6977C396.259 93.9129 396.571 93.1602 397.126 92.6052C397.681 92.0502 398.433 91.7384 399.218 91.7384C399.607 91.7384 399.992 91.815 400.351 91.9637C400.71 92.1124 401.036 92.3304 401.311 92.6052C401.586 92.88 401.804 93.2062 401.952 93.5652C402.101 93.9243 402.178 94.3091 402.178 94.6977ZM350.869 120.352C350.869 120.938 350.696 121.511 350.371 121.998C350.045 122.484 349.583 122.864 349.043 123.089C348.501 123.313 347.906 123.371 347.331 123.257C346.659 123.123 346.055 122.76 345.62 122.231C345.186 121.701 344.949 121.037 344.95 120.352C344.95 119.567 345.261 118.814 345.816 118.259C346.229 117.845 346.757 117.562 347.331 117.448C347.905 117.334 348.501 117.392 349.043 117.616C349.583 117.84 350.046 118.22 350.371 118.707C350.696 119.194 350.869 119.767 350.869 120.352ZM376.523 120.352C376.522 121.036 376.283 121.698 375.848 122.226C375.414 122.755 374.81 123.116 374.139 123.25C373.469 123.384 372.772 123.28 372.168 122.958C371.564 122.636 371.091 122.116 370.828 121.485C370.604 120.944 370.545 120.348 370.66 119.774C370.774 119.2 371.056 118.673 371.47 118.259C371.884 117.845 372.411 117.562 372.985 117.448C373.559 117.334 374.155 117.392 374.697 117.616C375.238 117.84 375.7 118.22 376.025 118.707C376.35 119.194 376.523 119.767 376.523 120.352ZM402.178 120.352C402.178 120.741 402.101 121.125 401.953 121.485C401.805 121.844 401.586 122.17 401.311 122.445C400.756 123 400.003 123.311 399.218 123.311C398.434 123.311 397.681 123 397.126 122.445C396.851 122.17 396.633 121.844 396.484 121.485C396.335 121.125 396.259 120.741 396.259 120.352C396.259 119.567 396.571 118.814 397.126 118.259C397.681 117.704 398.433 117.393 399.218 117.393C400.003 117.393 400.756 117.704 401.311 118.259C401.866 118.814 402.178 119.567 402.178 120.352Z" fill="#FCB040"/>
<path d="M328.072 5.67646C328.072 5.02028 328.201 4.3705 328.452 3.76416C328.704 3.15759 329.072 2.60727 329.535 2.1426C329.999 1.67826 330.55 1.30994 331.157 1.05872C331.763 0.807496 332.413 0.678302 333.069 0.678528C333.725 0.678528 334.375 0.807457 334.982 1.05839C335.588 1.30933 336.138 1.67708 336.602 2.14174C337.066 2.6064 337.435 3.15673 337.686 3.76243C337.937 4.36871 338.066 5.01849 338.066 5.67473C338.066 7.00036 337.54 8.27147 336.603 9.20858C335.666 10.1457 334.395 10.6727 333.07 10.6727C331.745 10.6727 330.473 10.1466 329.536 9.20945C328.599 8.27233 328.072 7.00122 328.072 5.67646Z" fill="#FA5751"/>
<path d="M82.1993 156.466L69.3489 166.728L66.7539 150.374L82.1993 156.466ZM66.3212 70.3354H193.519V58.2213H66.3212V70.3354ZM264.387 206.618H289.826V194.504H264.387V206.618ZM276.198 232.058H328.115V219.944H276.198V232.058Z" fill="#387ED1"/>
<path d="M100.777 281.899H106.549V280.885H101.919V277.676H106.178V276.662H101.919V273.472H106.473V272.458H100.777V281.899ZM111.264 282.047C112.83 282.047 113.863 281.088 114.047 279.834H112.96C112.756 280.608 112.112 281.069 111.264 281.069C109.973 281.069 109.144 279.999 109.144 278.359C109.144 276.754 109.992 275.703 111.264 275.703C112.222 275.703 112.793 276.294 112.96 276.94H114.047C113.863 275.612 112.738 274.726 111.245 274.726C109.327 274.726 108.055 276.238 108.055 278.395C108.055 280.516 109.272 282.047 111.264 282.047ZM118.513 282.047C120.431 282.047 121.722 280.589 121.722 278.395C121.722 276.182 120.431 274.726 118.513 274.726C116.596 274.726 115.305 276.182 115.305 278.395C115.305 280.589 116.596 282.047 118.513 282.047ZM118.513 281.069C117.057 281.069 116.393 279.815 116.393 278.395C116.393 276.975 117.057 275.703 118.513 275.703C119.969 275.703 120.633 276.976 120.633 278.395C120.633 279.814 119.97 281.069 118.513 281.069ZM124.469 277.64C124.469 276.405 125.235 275.703 126.276 275.703C127.286 275.703 127.899 276.362 127.899 277.473V281.899H128.987V277.4C128.987 275.593 128.023 274.726 126.59 274.726C125.52 274.726 124.857 275.206 124.525 275.925H124.433V274.819H123.382V281.899H124.469V277.64ZM133.85 282.047C135.768 282.047 137.058 280.589 137.058 278.395C137.058 276.182 135.768 274.726 133.85 274.726C131.933 274.726 130.643 276.182 130.643 278.395C130.643 280.589 131.933 282.047 133.85 282.047ZM133.85 281.069C132.394 281.069 131.73 279.815 131.73 278.395C131.73 276.975 132.394 275.703 133.85 275.703C135.307 275.703 135.97 276.976 135.97 278.395C135.97 279.814 135.307 281.069 133.85 281.069ZM138.719 281.899H139.807V277.473C139.807 276.436 140.562 275.703 141.41 275.703C142.236 275.703 142.812 276.243 142.812 277.049V281.899H143.918V277.29C143.918 276.377 144.489 275.703 145.485 275.703C146.26 275.703 146.923 276.114 146.923 277.16V281.899H148.011V277.16C148.011 275.496 147.117 274.726 145.854 274.726C144.84 274.726 144.098 275.193 143.734 275.925H143.66C143.31 275.17 142.692 274.726 141.761 274.726C140.839 274.726 140.157 275.17 139.862 275.925H139.77V274.819H138.719V281.899ZM150 281.899H151.088V274.819H150V281.899ZM150.553 273.639C150.977 273.639 151.328 273.307 151.328 272.901C151.328 272.495 150.977 272.165 150.553 272.165C150.129 272.165 149.779 272.495 149.779 272.901C149.779 273.307 150.129 273.639 150.553 273.639ZM155.956 282.047C157.523 282.047 158.555 281.088 158.74 279.834H157.652C157.449 280.608 156.804 281.069 155.956 281.069C154.665 281.069 153.836 279.999 153.836 278.359C153.836 276.754 154.684 275.703 155.956 275.703C156.915 275.703 157.486 276.294 157.652 276.94H158.74C158.555 275.612 157.431 274.726 155.938 274.726C154.02 274.726 152.748 276.238 152.748 278.395C152.748 280.516 153.965 282.047 155.956 282.047ZM163.612 273.472H166.58V281.899H167.723V273.472H170.691V272.458H163.612V273.472ZM172.308 281.899H173.396V274.819H172.308V281.899ZM172.861 273.639C173.285 273.639 173.636 273.307 173.636 272.901C173.636 272.495 173.285 272.165 172.861 272.165C172.437 272.165 172.087 272.495 172.087 272.901C172.087 273.307 172.437 273.639 172.861 273.639ZM175.388 281.899H176.476V277.473C176.476 276.436 177.232 275.703 178.08 275.703C178.905 275.703 179.481 276.243 179.481 277.049V281.899H180.587V277.29C180.587 276.377 181.159 275.703 182.154 275.703C182.929 275.703 183.593 276.114 183.593 277.16V281.899H184.68V277.16C184.68 275.496 183.786 274.726 182.523 274.726C181.509 274.726 180.767 275.193 180.403 275.925H180.33C179.979 275.17 179.361 274.726 178.43 274.726C177.509 274.726 176.826 275.17 176.531 275.925H176.439V274.819H175.388V281.899ZM189.638 282.047C191.076 282.047 192.126 281.327 192.458 280.257L191.407 279.962C191.131 280.7 190.49 281.069 189.638 281.069C188.36 281.069 187.48 280.243 187.429 278.727H192.569V278.267C192.569 275.63 191.002 274.726 189.527 274.726C187.609 274.726 186.337 276.238 186.337 278.414C186.337 280.59 187.591 282.047 189.638 282.047ZM187.429 277.787C187.504 276.685 188.282 275.703 189.527 275.703C190.707 275.703 191.462 276.588 191.462 277.787H187.429ZM199.238 276.404C198.897 275.399 198.132 274.726 196.731 274.726C195.238 274.726 194.131 275.574 194.131 276.773C194.131 277.75 194.712 278.404 196.012 278.708L197.192 278.985C197.906 279.151 198.243 279.492 198.243 279.981C198.243 280.589 197.597 281.088 196.583 281.088C195.694 281.088 195.136 280.704 194.943 279.944L193.91 280.203C194.164 281.406 195.155 282.047 196.601 282.047C198.247 282.047 199.368 281.147 199.368 279.927C199.368 278.94 198.75 278.317 197.487 278.008L196.436 277.75C195.597 277.543 195.219 277.261 195.219 276.717C195.219 276.109 195.864 275.668 196.731 275.668C197.68 275.668 198.072 276.193 198.261 276.682L199.238 276.404ZM209.965 274.819H211.071C211.021 273.394 209.707 272.33 207.881 272.33C206.075 272.33 204.656 273.381 204.656 274.967C204.656 276.239 205.577 276.994 207.052 277.418L208.214 277.75C209.209 278.026 210.094 278.377 210.094 279.317C210.094 280.35 209.099 281.032 207.79 281.032C206.665 281.032 205.669 280.535 205.577 279.465H204.397C204.508 281.014 205.761 282.065 207.79 282.065C209.965 282.065 211.201 280.865 211.201 279.336C211.201 277.565 209.523 276.994 208.545 276.736L207.586 276.477C206.886 276.293 205.761 275.925 205.761 274.911C205.761 274.008 206.591 273.344 207.845 273.344C208.988 273.344 209.854 273.888 209.965 274.819ZM216.011 274.819H214.499V273.124H213.411V274.819H212.342V275.74H213.411V280.166C213.411 281.401 214.407 281.99 215.329 281.99C215.735 281.99 215.993 281.918 216.14 281.862L215.919 280.885C215.826 280.903 215.679 280.94 215.44 280.94C214.96 280.94 214.499 280.793 214.499 279.871V275.74H216.011V274.819ZM219.731 282.065C220.965 282.065 221.611 281.4 221.832 280.94H221.888V281.899H222.975V277.235C222.975 274.985 221.26 274.726 220.357 274.726C219.288 274.726 218.071 275.095 217.518 276.386L218.55 276.754C218.79 276.238 219.357 275.686 220.394 275.686C221.395 275.686 221.888 276.215 221.888 277.123V277.16C221.888 277.685 221.353 277.64 220.062 277.806C218.749 277.977 217.316 278.267 217.316 279.889C217.316 281.272 218.385 282.065 219.731 282.065ZM219.897 281.088C219.03 281.088 218.403 280.7 218.403 279.944C218.403 279.114 219.159 278.856 220.007 278.745C220.468 278.69 221.704 278.561 221.888 278.34V279.336C221.888 280.221 221.187 281.088 219.897 281.088ZM224.96 281.899H226.048V277.418C226.048 276.459 226.804 275.758 227.837 275.758C228.127 275.758 228.427 275.814 228.5 275.833V274.726L227.929 274.709C227.081 274.709 226.343 275.187 226.085 275.888H226.012V274.819H224.96V281.899ZM233.312 274.819H231.801V273.124H230.713V274.819H229.643V275.74H230.713V280.166C230.713 281.401 231.709 281.99 232.63 281.99C233.036 281.99 233.294 281.918 233.442 281.862L233.221 280.885C233.128 280.903 232.981 280.94 232.741 280.94C232.262 280.94 231.801 280.793 231.801 279.871V275.74H233.312V274.819ZM239.411 279.003C239.411 280.331 238.397 280.94 237.585 280.94C236.682 280.94 236.036 280.277 236.036 279.244V274.819H234.949V279.317C234.949 281.124 235.907 281.99 237.235 281.99C238.304 281.99 239.005 281.419 239.336 280.7H239.411V281.899H240.499V274.819H239.411V279.003ZM242.49 284.553H243.578V280.811H243.671C243.91 281.199 244.371 282.047 245.735 282.047C247.506 282.047 248.74 280.626 248.74 278.377C248.74 276.146 247.506 274.726 245.717 274.726C244.334 274.726 243.91 275.575 243.671 275.944H243.542V274.819H242.49V284.553ZM243.56 278.359C243.56 276.773 244.261 275.703 245.588 275.703C246.971 275.703 247.653 276.865 247.653 278.359C247.653 279.87 246.952 281.069 245.588 281.069C244.279 281.069 243.56 279.962 243.56 278.359ZM256.926 282.047C258.844 282.047 260.135 280.589 260.135 278.395C260.135 276.182 258.844 274.726 256.926 274.726C255.009 274.726 253.718 276.182 253.718 278.395C253.718 280.589 255.009 282.047 256.926 282.047ZM256.926 281.069C255.47 281.069 254.806 279.815 254.806 278.395C254.806 276.975 255.47 275.703 256.926 275.703C258.382 275.703 259.047 276.976 259.047 278.395C259.047 279.814 258.383 281.069 256.926 281.069ZM264.947 274.819H263.362V274.101C263.362 273.4 263.657 273.031 264.376 273.031C264.69 273.031 264.874 273.104 264.985 273.141L265.298 272.2C265.132 272.127 264.8 272.017 264.266 272.017C263.251 272.017 262.275 272.624 262.275 273.841V274.819H261.131V275.74H262.275V281.899H263.362V275.74H264.947V274.819ZM273.201 274.819H271.69V273.124H270.602V274.819H269.533V275.74H270.602V280.166C270.602 281.401 271.597 281.99 272.52 281.99C272.925 281.99 273.183 281.918 273.33 281.862L273.109 280.885C273.017 280.903 272.869 280.94 272.629 280.94C272.151 280.94 271.69 280.793 271.69 279.871V275.74H273.201V274.819ZM276.078 277.64C276.078 276.405 276.866 275.703 277.94 275.703C278.963 275.703 279.58 276.349 279.58 277.473V281.899H280.668V277.4C280.668 275.579 279.701 274.726 278.253 274.726C277.138 274.726 276.502 275.193 276.169 275.925H276.078V272.458H274.99V281.899H276.078V277.64ZM285.626 282.047C287.064 282.047 288.116 281.327 288.447 280.257L287.397 279.962C287.12 280.7 286.479 281.069 285.626 281.069C284.35 281.069 283.47 280.243 283.419 278.727H288.558V278.267C288.558 275.63 286.991 274.726 285.516 274.726C283.599 274.726 282.327 276.238 282.327 278.414C282.327 280.59 283.58 282.047 285.626 282.047ZM283.419 277.787C283.492 276.685 284.271 275.703 285.516 275.703C286.696 275.703 287.452 276.588 287.452 277.787H283.419ZM293.199 272.458L296.61 278.008V281.899H297.753V278.008L301.164 272.458H299.855L297.237 276.866H297.127L294.508 272.458H293.199ZM304.462 282.047C305.9 282.047 306.95 281.327 307.283 280.257L306.231 279.962C305.955 280.7 305.314 281.069 304.462 281.069C303.186 281.069 302.305 280.243 302.254 278.727H307.393V278.267C307.393 275.63 305.826 274.726 304.351 274.726C302.434 274.726 301.162 276.238 301.162 278.414C301.162 280.59 302.415 282.047 304.462 282.047ZM302.254 277.787C302.328 276.685 303.107 275.703 304.351 275.703C305.531 275.703 306.287 276.588 306.287 277.787H302.254ZM311.132 282.065C312.366 282.065 313.012 281.4 313.233 280.94H313.289V281.899H314.376V277.235C314.376 274.985 312.661 274.726 311.758 274.726C310.688 274.726 309.472 275.095 308.919 276.386L309.951 276.754C310.191 276.238 310.758 275.686 311.795 275.686C312.795 275.686 313.289 276.215 313.289 277.123V277.16C313.289 277.685 312.754 277.64 311.463 277.806C310.149 277.977 308.716 278.267 308.716 279.889C308.716 281.272 309.785 282.065 311.132 282.065ZM311.298 281.088C310.431 281.088 309.804 280.7 309.804 279.944C309.804 279.114 310.56 278.856 311.408 278.745C311.869 278.69 313.104 278.561 313.289 278.34V279.336C313.289 280.221 312.588 281.088 311.298 281.088ZM316.361 281.899H317.449V277.418C317.449 276.459 318.205 275.758 319.238 275.758C319.528 275.758 319.828 275.814 319.901 275.833V274.726L319.33 274.709C318.482 274.709 317.744 275.187 317.486 275.888H317.413V274.819H316.361V281.899ZM328.898 277.345H324.768V278.359H328.898V277.345ZM334.443 281.899H340.398V280.885H336.01V280.811L338.13 278.544C339.753 276.806 340.232 275.995 340.232 274.949C340.232 273.492 339.053 272.33 337.393 272.33C335.739 272.33 334.481 273.454 334.481 275.114H335.568C335.568 274.04 336.264 273.326 337.356 273.326C338.38 273.326 339.163 273.953 339.163 274.949C339.163 275.82 338.651 276.464 337.559 277.658L334.443 281.069V281.899ZM345.381 282.027C347.464 282.027 348.663 280.263 348.663 277.179C348.663 274.119 347.446 272.33 345.381 272.33C343.315 272.33 342.099 274.119 342.099 277.179C342.099 280.263 343.298 282.027 345.381 282.027ZM345.381 281.013C344.007 281.013 343.205 279.636 343.205 277.179C343.205 274.723 344.016 273.326 345.381 273.326C346.745 273.326 347.556 274.727 347.556 277.179C347.556 279.631 346.755 281.013 345.381 281.013ZM350.414 281.899H356.369V280.885H351.981V280.811L354.101 278.544C355.723 276.806 356.203 275.995 356.203 274.949C356.203 273.492 355.023 272.33 353.364 272.33C351.709 272.33 350.451 273.454 350.451 275.114H351.539C351.539 274.04 352.235 273.326 353.327 273.326C354.35 273.326 355.134 273.953 355.134 274.949C355.134 275.82 354.622 276.464 353.53 277.658L350.414 281.069V281.899ZM361.351 282.027C363.435 282.027 364.633 280.263 364.633 277.179C364.633 274.119 363.417 272.33 361.351 272.33C359.286 272.33 358.07 274.119 358.07 277.179C358.07 280.263 359.269 282.027 361.351 282.027ZM361.351 281.013C359.978 281.013 359.176 279.636 359.176 277.179C359.176 274.723 359.988 273.326 361.351 273.326C362.715 273.326 363.527 274.727 363.527 277.179C363.527 279.631 362.725 281.013 361.351 281.013ZM90.526 270.909H88.5272L88.5385 270.241C88.5376 270.12 88.4891 270.004 88.4035 269.919C88.3178 269.833 88.2027 269.785 88.0816 269.785H78.3073C78.2473 269.784 78.1878 269.796 78.1325 269.819C78.0771 269.842 78.0268 269.875 77.9845 269.918C77.8987 270.004 77.8505 270.12 77.8504 270.241L77.8616 270.909H75.8628C75.7425 270.909 75.6266 270.958 75.5409 271.043C75.4558 271.129 75.4076 271.244 75.4068 271.364C75.4068 273.409 75.9415 275.34 76.9115 276.798C77.8703 278.239 79.1483 279.065 80.5285 279.145C80.8408 279.486 81.1714 279.765 81.5166 279.977V282.004H80.7508C80.3056 282.004 79.8787 282.181 79.5638 282.496C79.249 282.811 79.0722 283.238 79.0722 283.683V284.448H79.041C78.9201 284.448 78.8043 284.496 78.7188 284.582C78.6332 284.667 78.5848 284.783 78.5841 284.904C78.5838 284.964 78.5956 285.024 78.6188 285.079C78.6421 285.135 78.675 285.185 78.7174 285.227C78.7597 285.27 78.8101 285.304 78.8657 285.327C78.9213 285.35 78.9809 285.361 79.041 285.361H87.3478C87.4654 285.355 87.5763 285.305 87.6576 285.22C87.7398 285.135 87.7848 285.021 87.7848 284.904C87.7848 284.786 87.7398 284.673 87.6576 284.588C87.5754 284.503 87.4655 284.452 87.3478 284.448H87.3158V283.683C87.3158 283.238 87.139 282.811 86.8241 282.496C86.5093 282.181 86.0824 282.004 85.6371 282.004H84.8714V279.976C85.2379 279.746 85.5708 279.467 85.8604 279.145C87.2397 279.065 88.5168 278.239 89.4773 276.798C90.4464 275.34 90.9812 273.409 90.9812 271.364C90.9808 271.244 90.933 271.128 90.8479 271.043C90.7623 270.957 90.6472 270.909 90.526 270.909ZM77.6713 276.291C76.8709 275.089 76.401 273.516 76.3292 271.822H77.9127C78.0771 273.905 78.566 275.829 79.33 277.358L79.7108 278.048C78.9519 277.761 78.2501 277.162 77.6713 276.291ZM86.4038 283.681V284.448H79.9851V283.683C79.9851 283.261 80.3286 282.916 80.7508 282.916H85.638C86.0603 282.916 86.4038 283.261 86.4038 283.683V283.681ZM83.9602 282.004H82.4286V280.372C82.9306 280.505 83.4583 280.505 83.9602 280.372V282.004ZM84.2423 279.286C83.9213 279.463 83.5611 279.557 83.1944 279.56C82.8275 279.557 82.4667 279.464 82.1457 279.286C81.7883 279.097 81.4422 278.81 81.1143 278.436C81.0971 278.411 81.0777 278.389 81.0563 278.368C80.6987 277.932 80.3935 277.455 80.1469 276.948C79.3075 275.271 78.823 273.067 78.7685 270.697H87.6204C87.565 273.067 87.0805 275.272 86.242 276.949C85.9954 277.456 85.6901 277.933 85.3326 278.369C85.3107 278.389 85.291 278.411 85.2737 278.436C84.9466 278.811 84.6005 279.097 84.2423 279.286ZM88.7176 276.291C88.1387 277.161 87.437 277.761 86.6772 278.048L87.058 277.358C87.8229 275.829 88.3118 273.905 88.4762 271.822H90.0597C89.9878 273.516 89.5171 275.089 88.7176 276.291ZM16.1109 296.003H14.1121L14.1233 295.335C14.1226 295.214 14.0743 295.098 13.9887 295.013C13.9031 294.927 13.7873 294.879 13.6664 294.879H3.8921C3.83213 294.878 3.7726 294.889 3.71731 294.913C3.66192 294.935 3.61161 294.969 3.56934 295.011C3.52672 295.054 3.49291 295.104 3.46984 295.16C3.44647 295.215 3.43522 295.274 3.43522 295.335L3.44647 296.003H1.44765C1.32651 296.003 1.21142 296.051 1.12576 296.137C1.04062 296.222 0.992444 296.337 0.991638 296.458C0.991638 298.503 1.52639 300.433 2.49638 301.891C3.45513 303.333 4.73316 304.158 6.1133 304.239C6.42568 304.58 6.75622 304.858 7.10147 305.07V307.098H6.33568C5.89047 307.098 5.4635 307.274 5.14869 307.589C4.83388 307.904 4.65702 308.331 4.65702 308.776V309.541H4.62587C4.53595 309.542 4.44825 309.569 4.37407 309.62C4.29981 309.67 4.24195 309.741 4.20765 309.824C4.17336 309.907 4.16413 309.998 4.18111 310.086C4.19841 310.174 4.24081 310.255 4.30311 310.32C4.38878 310.406 4.50473 310.453 4.62587 310.453H12.9327C13.0504 310.449 13.1611 310.398 13.2424 310.313C13.3234 310.228 13.3685 310.115 13.3685 309.997C13.3685 309.88 13.3234 309.767 13.2424 309.681C13.1611 309.597 13.0495 309.546 12.9327 309.541H12.9007V308.776C12.9007 308.331 12.7238 307.904 12.409 307.589C12.0942 307.274 11.6672 307.098 11.222 307.098H10.4562V305.069C10.8227 304.84 11.1556 304.56 11.4452 304.239C12.8245 304.158 14.1017 303.333 15.0622 301.891C16.0313 300.433 16.566 298.503 16.566 296.458C16.566 296.338 16.5184 296.222 16.4328 296.136C16.3471 296.05 16.232 296.003 16.1109 296.003ZM3.25611 301.385C2.45571 300.182 1.98586 298.61 1.91404 296.916H3.49753C3.66193 298.998 4.15082 300.923 4.91487 302.451L5.2956 303.141C4.53674 302.854 3.83499 302.255 3.25611 301.385ZM11.9886 308.775V309.541H5.5699V308.776C5.5699 308.354 5.91342 308.01 6.33568 308.01H11.2229C11.6451 308.01 11.9886 308.354 11.9886 308.776V308.775ZM9.54505 307.098H8.01349V305.466C8.51543 305.598 9.04312 305.598 9.54505 305.466V307.098ZM9.82714 304.38C9.50612 304.557 9.1459 304.651 8.77927 304.653C8.41239 304.651 8.05242 304.557 7.73054 304.38C7.37317 304.19 7.02705 303.904 6.69911 303.529C6.68193 303.505 6.66252 303.482 6.64113 303.462C6.28355 303.026 5.97832 302.549 5.73171 302.042C4.89238 300.365 4.40781 298.16 4.3533 295.791H13.2052C13.1499 298.16 12.6653 300.366 11.8268 302.043C11.5802 302.55 11.275 303.026 10.9174 303.463C10.8956 303.483 10.8758 303.505 10.8586 303.529C10.5315 303.905 10.1854 304.19 9.82714 304.38ZM14.3024 301.385C13.7236 302.255 13.0218 302.854 12.2621 303.141L12.6428 302.451C13.4077 300.923 13.8966 298.998 14.061 296.916H15.6445C15.5727 298.61 15.102 300.182 14.3024 301.385ZM33.8511 298.562H32.7262V305.992H32.6345L27.4722 298.562H26.3663V308.002H27.5094V300.591H27.602L32.7461 308.002H33.852V298.562H33.8511Z" fill="#477ECB"/>
<path d="M41.3004 300.922H42.4063C42.3552 299.498 41.0417 298.433 39.2168 298.433C37.4101 298.433 35.9901 299.484 35.9901 301.07C35.9901 302.342 36.9116 303.097 38.387 303.521L39.5482 303.854C40.5441 304.13 41.4285 304.48 41.4285 305.421C41.4285 306.453 40.4325 307.135 39.1242 307.135C37.9993 307.135 37.0042 306.637 36.9116 305.568H35.7314C35.8421 307.117 37.096 308.168 39.1233 308.168C41.2987 308.168 42.5343 306.97 42.5343 305.439C42.5343 303.669 40.8565 303.097 39.8796 302.84L38.9209 302.582C38.22 302.397 37.096 302.028 37.096 301.015C37.096 300.111 37.9258 299.448 39.1796 299.448C40.3226 299.448 41.1897 299.991 41.2995 300.922H41.3004Z" fill="#477ECB"/>
<path d="M44.4146 308.002H50.1852V306.988H45.5577V303.78H49.8166V302.766H45.5577V299.576H50.1117V298.562H44.4146V308.002V308.002Z" fill="#477ECB"/>
<path d="M53.6473 306.711H52.467L52.4117 307.227C52.2784 308.477 52.0154 309.721 51.8951 310.306H52.7249C52.9464 309.68 53.4163 308.26 53.5729 307.209L53.6473 306.711ZM59.4603 308.002H62.8713C65.102 308.002 66.0244 306.914 66.0244 305.494C66.0244 304.001 64.9921 303.19 64.1251 303.135V303.042C64.9368 302.821 65.655 302.287 65.655 301.07C65.655 299.686 64.7334 298.562 62.7606 298.562H59.4603V308.002ZM60.6034 306.988V303.706H62.9267C64.1623 303.706 64.9359 304.536 64.9359 305.494C64.9359 306.324 64.3648 306.988 62.8713 306.988H60.6034ZM60.6034 302.711V299.576H62.7606C64.0144 299.576 64.5673 300.24 64.5673 301.07C64.5673 302.065 63.7565 302.711 62.7234 302.711H60.6034Z" fill="#477ECB"/>
<path d="M73.0644 300.922H74.1703C74.1192 299.498 72.8057 298.433 70.9808 298.433C69.1741 298.433 67.7541 299.484 67.7541 301.07C67.7541 302.342 68.6757 303.097 70.151 303.521L71.3122 303.854C72.3082 304.13 73.1925 304.48 73.1925 305.421C73.1925 306.453 72.1966 307.135 70.8882 307.135C69.7634 307.135 68.7683 306.637 68.6757 305.568H67.4954C67.6062 307.117 68.86 308.168 70.8874 308.168C73.0627 308.168 74.2984 306.97 74.2984 305.439C74.2984 303.669 72.6206 303.097 71.6436 302.84L70.6849 302.582C69.984 302.397 68.86 302.028 68.86 301.015C68.86 300.111 69.6898 299.448 70.9436 299.448C72.0867 299.448 72.9537 299.991 73.0636 300.922H73.0644Z" fill="#477ECB"/>
<path d="M76.1786 308.002H81.9493V306.988H77.3217V303.78H81.5807V302.766H77.3217V299.576H81.8757V298.562H76.1786V308.002V308.002Z" fill="#477ECB"/>
<path d="M85.4113 306.711H84.231L84.1757 307.227C84.0415 308.477 83.7794 309.721 83.6591 310.306H84.4889C84.7104 309.68 85.1803 308.26 85.3369 307.209L85.4113 306.711ZM91.2243 298.562V308.002H92.2938V300.83H92.3856L95.3353 308.002H96.3685L99.3183 300.83H99.41V308.002H100.48V298.562H99.1149L95.9073 306.398H95.7965L92.5889 298.562H91.2243ZM110.367 301.512C110.017 299.577 108.469 298.433 106.569 298.433C104.154 298.433 102.403 300.296 102.403 303.282C102.403 306.268 104.154 308.131 106.569 308.131C108.469 308.131 110.017 306.988 110.367 305.052H109.224C108.948 306.361 107.823 307.061 106.569 307.061C104.854 307.061 103.509 305.734 103.509 303.282C103.509 300.829 104.854 299.502 106.569 299.502C107.823 299.502 108.948 300.203 109.224 301.512H110.367ZM112.691 298.562H111.346L114.387 303.282L111.346 308.002H112.691L115.125 304.149H115.199L117.632 308.002H118.979L116.01 303.282L118.979 298.562H117.632L115.199 302.489H115.125L112.691 298.562ZM128.025 302.775H123.895V303.789H128.025V302.775ZM133.737 308.002H137.148C139.379 308.002 140.3 306.914 140.3 305.494C140.3 304.001 139.268 303.19 138.402 303.135V303.042C139.213 302.821 139.932 302.287 139.932 301.07C139.932 299.686 139.01 298.562 137.037 298.562H133.737V308.002ZM134.88 306.988V303.706H137.203C138.438 303.706 139.213 304.536 139.213 305.494C139.213 306.324 138.641 306.988 137.148 306.988H134.88ZM134.88 302.711V299.577H137.037C138.291 299.577 138.844 300.24 138.844 301.07C138.844 302.065 138.032 302.711 137 302.711H134.88ZM145 308.149C146.438 308.149 147.488 307.43 147.821 306.361L146.769 306.066C146.493 306.803 145.852 307.172 145 307.172C143.723 307.172 142.842 306.347 142.791 304.831H147.93V304.369C147.93 301.734 146.363 300.83 144.889 300.83C142.971 300.83 141.699 302.342 141.699 304.517C141.699 306.693 142.953 308.149 145 308.149ZM142.791 303.89C142.865 302.788 143.645 301.807 144.889 301.807C146.068 301.807 146.825 302.692 146.825 303.89H142.791ZM154.6 302.507C154.259 301.503 153.494 300.83 152.092 300.83C150.6 300.83 149.493 301.678 149.493 302.877C149.493 303.854 150.074 304.508 151.374 304.812L152.554 305.088C153.268 305.255 153.605 305.595 153.605 306.084C153.605 306.693 152.959 307.19 151.945 307.19C151.056 307.19 150.498 306.808 150.305 306.047L149.272 306.306C149.526 307.509 150.517 308.149 151.964 308.149C153.609 308.149 154.729 307.251 154.729 306.029C154.729 305.043 154.112 304.42 152.849 304.112L151.798 303.854C150.959 303.646 150.581 303.365 150.581 302.821C150.581 302.213 151.226 301.77 152.092 301.77C153.043 301.77 153.435 302.295 153.623 302.784L154.6 302.507ZM159.446 300.922H157.934V299.226H156.846V300.922H155.777V301.844H156.846V306.269C156.846 307.504 157.841 308.094 158.764 308.094C159.169 308.094 159.428 308.02 159.575 307.965L159.353 306.988C159.261 307.006 159.113 307.043 158.874 307.043C158.394 307.043 157.934 306.895 157.934 305.974V301.844H159.446V300.922ZM164.88 308.002H166.023V304.315H168.087L168.327 304.31L170.319 308.002H171.646L169.512 304.102C170.715 303.692 171.278 302.711 171.278 301.457C171.278 299.789 170.282 298.562 168.069 298.562H164.88V308.002ZM166.023 303.282V299.577H168.033C169.563 299.577 170.153 300.323 170.153 301.457C170.153 302.59 169.563 303.282 168.051 303.282H166.023Z" fill="#477ECB"/>
<path d="M175.927 308.149C177.365 308.149 178.416 307.43 178.748 306.361L177.696 306.066C177.42 306.803 176.779 307.172 175.927 307.172C174.65 307.172 173.77 306.347 173.719 304.831H178.859V304.369C178.859 301.734 177.292 300.83 175.816 300.83C173.899 300.83 172.627 302.342 172.627 304.517C172.627 306.693 173.881 308.149 175.927 308.149V308.149ZM173.719 303.89C173.793 302.788 174.572 301.807 175.816 301.807C176.996 301.807 177.752 302.692 177.752 303.89H173.719Z" fill="#477ECB"/>
<path d="M183.592 300.922H182.08V299.226H180.992V300.922H179.923V301.844H180.992V306.269C180.992 307.504 181.987 308.094 182.91 308.094C183.316 308.094 183.574 308.02 183.721 307.965L183.5 306.988C183.407 307.006 183.26 307.043 183.021 307.043C182.541 307.043 182.08 306.895 182.08 305.974V301.844H183.592V300.922Z" fill="#477ECB"/>
<path d="M187.312 308.168C188.546 308.168 189.192 307.504 189.413 307.043H189.469V308.002H190.556V303.337C190.556 301.088 188.841 300.83 187.938 300.83C186.869 300.83 185.652 301.199 185.099 302.489L186.131 302.858C186.371 302.342 186.938 301.788 187.975 301.788C188.976 301.788 189.469 302.319 189.469 303.226V303.264C189.469 303.789 188.934 303.743 187.643 303.909C186.329 304.08 184.897 304.369 184.897 305.992C184.897 307.375 185.965 308.168 187.312 308.168V308.168ZM187.478 307.19C186.611 307.19 185.984 306.803 185.984 306.047C185.984 305.218 186.74 304.96 187.588 304.849C188.049 304.793 189.284 304.664 189.469 304.444V305.439C189.469 306.324 188.768 307.19 187.478 307.19V307.19Z" fill="#477ECB"/>
<path d="M192.541 308.002H193.629V300.922H192.541V308.002ZM193.095 299.742C193.519 299.742 193.869 299.41 193.869 299.005C193.869 298.599 193.519 298.267 193.095 298.267C192.671 298.267 192.321 298.599 192.321 299.005C192.321 299.41 192.67 299.742 193.095 299.742ZM196.71 298.562H195.622V308.002H196.71V298.562ZM202.5 308.002H205.91C208.142 308.002 209.063 306.914 209.063 305.494C209.063 304.001 208.031 303.19 207.164 303.135V303.042C207.976 302.821 208.695 302.287 208.695 301.07C208.695 299.686 207.772 298.562 205.8 298.562H202.5V308.002ZM203.643 306.988V303.706H205.966C207.201 303.706 207.976 304.536 207.976 305.494C207.976 306.324 207.404 306.988 205.91 306.988H203.643ZM203.643 302.711V299.577H205.8C207.053 299.577 207.607 300.24 207.607 301.07C207.607 302.065 206.795 302.711 205.763 302.711H203.643ZM210.794 308.002H211.882V303.521C211.882 302.563 212.638 301.863 213.67 301.863C213.961 301.863 214.26 301.918 214.334 301.936V300.83L213.762 300.811C212.914 300.811 212.177 301.291 211.919 301.992H211.845V300.922H210.794V308.002ZM218.284 308.149C220.201 308.149 221.492 306.693 221.492 304.499C221.492 302.287 220.201 300.83 218.284 300.83C216.366 300.83 215.076 302.287 215.076 304.499C215.076 306.693 216.366 308.149 218.284 308.149ZM218.284 307.172C216.828 307.172 216.164 305.918 216.164 304.499C216.164 303.08 216.828 301.807 218.284 301.807C219.74 301.807 220.404 303.079 220.404 304.499C220.404 305.919 219.74 307.172 218.284 307.172ZM223.152 308.002H224.24V305.351L225 304.646L227.651 308.002H229.033L225.821 303.945L228.812 300.922H227.466L224.37 304.075H224.24V298.562H223.152V308.002Z" fill="#477ECB"/>
<path d="M232.889 308.149C234.327 308.149 235.378 307.43 235.71 306.361L234.659 306.066C234.383 306.803 233.741 307.172 232.889 307.172C231.612 307.172 230.732 306.347 230.681 304.831H235.821V304.369C235.821 301.734 234.254 300.83 232.778 300.83C230.861 300.83 229.589 302.342 229.589 304.517C229.589 306.693 230.843 308.149 232.889 308.149V308.149ZM230.681 303.89C230.755 302.788 231.534 301.807 232.778 301.807C233.959 301.807 234.714 302.692 234.714 303.89H230.681Z" fill="#477ECB"/>
<path d="M237.475 308.002H238.563V303.521C238.563 302.563 239.319 301.863 240.351 301.863C240.641 301.863 240.942 301.918 241.015 301.936V300.83L240.443 300.811C239.595 300.811 238.858 301.291 238.6 301.992H238.527V300.922H237.475V308.002Z" fill="#477ECB"/>
<path d="M244.388 308.168C245.623 308.168 246.268 307.504 246.49 307.043H246.545V308.002H247.633V303.337C247.633 301.088 245.918 300.83 245.014 300.83C243.945 300.83 242.728 301.199 242.175 302.489L243.208 302.858C243.447 302.342 244.014 301.788 245.052 301.788C246.052 301.788 246.545 302.319 246.545 303.226V303.264C246.545 303.789 246.01 303.743 244.719 303.909C243.406 304.08 241.973 304.369 241.973 305.992C241.973 307.375 243.042 308.168 244.388 308.168V308.168ZM244.554 307.19C243.687 307.19 243.061 306.803 243.061 306.047C243.061 305.218 243.816 304.96 244.664 304.849C245.125 304.793 246.361 304.664 246.545 304.444V305.439C246.545 306.324 245.844 307.19 244.554 307.19V307.19Z" fill="#477ECB"/>
<path d="M252.476 310.805C254.172 310.805 255.536 310.03 255.536 308.204V300.922H254.485V302.047H254.374C254.135 301.678 253.692 300.83 252.31 300.83C250.521 300.83 249.286 302.249 249.286 304.425C249.286 306.637 250.577 307.891 252.292 307.891C253.674 307.891 254.117 307.08 254.356 306.693H254.449V308.131C254.449 309.311 253.619 309.846 252.476 309.846C251.19 309.846 250.738 309.168 250.448 308.776L249.582 309.385C250.024 310.126 250.895 310.805 252.476 310.805ZM252.439 306.914C251.074 306.914 250.374 305.882 250.374 304.407C250.374 302.968 251.056 301.807 252.439 301.807C253.766 301.807 254.467 302.877 254.467 304.407C254.467 305.974 253.748 306.914 252.439 306.914ZM260.495 308.149C261.934 308.149 262.985 307.43 263.316 306.361L262.266 306.066C261.989 306.803 261.349 307.172 260.495 307.172C259.219 307.172 258.338 306.347 258.288 304.831H263.427V304.369C263.427 301.734 261.86 300.83 260.385 300.83C258.468 300.83 257.195 302.342 257.195 304.517C257.195 306.693 258.449 308.149 260.495 308.149ZM258.288 303.89C258.362 302.788 259.14 301.807 260.385 301.807C261.565 301.807 262.321 302.692 262.321 303.89H258.288Z" fill="#477ECB"/>
<path d="M270.816 308.168C272.051 308.168 272.696 307.504 272.918 307.043H272.973V308.002H274.061V303.337C274.061 301.088 272.346 300.83 271.442 300.83C270.373 300.83 269.156 301.199 268.603 302.489L269.636 302.858C269.875 302.342 270.442 301.788 271.479 301.788C272.48 301.788 272.973 302.319 272.973 303.226V303.264C272.973 303.789 272.438 303.743 271.147 303.909C269.834 304.08 268.401 304.369 268.401 305.992C268.401 307.375 269.469 308.168 270.816 308.168V308.168ZM270.982 307.19C270.115 307.19 269.488 306.803 269.488 306.047C269.488 305.218 270.244 304.96 271.092 304.849C271.553 304.793 272.789 304.664 272.973 304.444V305.439C272.973 306.324 272.272 307.19 270.982 307.19V307.19Z" fill="#477ECB"/>
<path d="M277.65 308.002H278.719L280.267 302.563H280.378L281.927 308.002H282.997L285.154 300.922H284.011L282.48 306.324H282.406L280.913 300.922H279.752L278.24 306.342H278.166L276.636 300.922H275.493L277.65 308.002ZM288.675 308.168C289.91 308.168 290.556 307.504 290.776 307.043H290.832V308.002H291.919V303.337C291.919 301.088 290.205 300.83 289.302 300.83C288.232 300.83 287.016 301.199 286.463 302.489L287.495 302.858C287.735 302.342 288.302 301.788 289.338 301.788C290.339 301.788 290.832 302.319 290.832 303.226V303.263C290.832 303.789 290.297 303.743 289.007 303.909C287.693 304.079 286.26 304.369 286.26 305.992C286.26 307.374 287.329 308.168 288.675 308.168ZM288.841 307.19C287.975 307.19 287.347 306.803 287.347 306.047C287.347 305.218 288.103 304.959 288.951 304.849C289.413 304.793 290.647 304.664 290.832 304.444V305.439C290.832 306.324 290.132 307.19 288.841 307.19ZM293.905 308.002H294.993V303.521C294.993 302.563 295.749 301.863 296.781 301.863C297.071 301.863 297.372 301.918 297.445 301.936V300.83L296.873 300.811C296.025 300.811 295.288 301.291 295.03 301.991H294.956V300.922H293.905V308.002ZM301.192 308.149C302.556 308.149 303.018 307.301 303.257 306.914H303.386V308.002H304.437V298.562H303.349V302.047H303.257C303.018 301.678 302.594 300.83 301.211 300.83C299.422 300.83 298.187 302.249 298.187 304.48C298.187 306.73 299.422 308.149 301.192 308.149ZM301.34 307.172C299.975 307.172 299.274 305.974 299.274 304.462C299.274 302.968 299.957 301.807 301.34 301.807C302.667 301.807 303.368 302.877 303.368 304.462C303.368 306.066 302.649 307.172 301.34 307.172ZM314.287 303.448H310.157V304.462H314.287V303.448ZM319.833 308.002H325.788V306.988H321.4V306.914L323.52 304.646C325.142 302.909 325.622 302.097 325.622 301.051C325.622 299.595 324.442 298.433 322.783 298.433C321.128 298.433 319.87 299.557 319.87 301.217H320.958C320.958 300.143 321.653 299.428 322.745 299.428C323.769 299.428 324.552 300.056 324.552 301.051C324.552 301.922 324.041 302.568 322.949 303.761L319.833 307.172V308.002ZM330.77 308.131C332.854 308.131 334.052 306.366 334.052 303.282C334.052 300.221 332.836 298.433 330.77 298.433C328.705 298.433 327.489 300.221 327.489 303.282C327.489 306.366 328.687 308.131 330.77 308.131ZM330.77 307.117C329.397 307.117 328.595 305.738 328.595 303.282C328.595 300.83 329.406 299.428 330.77 299.428C332.135 299.428 332.946 300.83 332.946 303.282C332.946 305.738 332.144 307.117 330.77 307.117ZM339.122 298.562H337.979L335.619 300.129V301.291L337.924 299.761H337.979V308.002H339.122V298.562ZM344.861 308.131C346.746 308.131 348.06 307.029 348.068 305.494C348.06 304.301 347.262 303.287 346.243 303.097V303.042C347.129 302.812 347.709 301.946 347.718 300.94C347.709 299.502 346.501 298.433 344.861 298.433C343.201 298.433 341.994 299.502 342.003 300.94C341.994 301.946 342.574 302.812 343.478 303.042V303.097C342.44 303.287 341.643 304.301 341.653 305.494C341.643 307.029 342.957 308.131 344.861 308.131ZM344.861 307.117C343.565 307.117 342.768 306.453 342.777 305.439C342.768 304.374 343.648 303.614 344.861 303.614C346.055 303.614 346.935 304.374 346.944 305.439C346.935 306.453 346.137 307.117 344.861 307.117ZM344.861 302.637C343.828 302.637 343.1 301.991 343.109 301.015C343.1 300.056 343.801 299.428 344.861 299.428C345.902 299.428 346.602 300.056 346.612 301.015C346.602 301.991 345.875 302.637 344.861 302.637ZM351.184 306.711H350.005L349.949 307.227C349.815 308.477 349.553 309.721 349.433 310.306H350.263C350.484 309.68 350.954 308.26 351.111 307.209L351.184 306.711ZM356.832 308.002H362.787V306.988H358.399V306.914L360.519 304.646C362.141 302.909 362.621 302.097 362.621 301.051C362.621 299.595 361.44 298.433 359.782 298.433C358.123 298.433 356.868 299.557 356.868 301.217H357.956C357.956 300.143 358.652 299.428 359.744 299.428C360.768 299.428 361.551 300.056 361.551 301.051C361.551 301.922 361.04 302.568 359.948 303.761L356.832 307.172V308.002ZM367.769 308.131C369.853 308.131 371.051 306.366 371.051 303.282C371.051 300.221 369.834 298.433 367.769 298.433C365.705 298.433 364.487 300.221 364.487 303.282C364.487 306.366 365.686 308.131 367.769 308.131ZM367.769 307.117C366.396 307.117 365.594 305.738 365.594 303.282C365.594 300.83 366.405 299.428 367.769 299.428C369.134 299.428 369.945 300.83 369.945 303.282C369.945 305.738 369.142 307.117 367.769 307.117ZM376.121 298.562H374.978L372.618 300.129V301.291L374.923 299.761H374.978V308.002H376.121V298.562ZM381.841 298.433C379.923 298.41 378.688 299.852 378.688 301.586C378.688 303.411 380.034 304.72 381.656 304.72C382.634 304.72 383.463 304.24 383.98 303.466H384.053C384.053 305.789 383.15 307.117 381.693 307.117C380.698 307.117 380.089 306.49 379.887 305.623H378.762C378.983 307.117 380.108 308.131 381.693 308.131C383.813 308.131 385.123 306.25 385.123 302.895C385.123 299.428 383.389 298.452 381.841 298.433ZM381.841 299.448C383.021 299.448 383.887 300.461 383.887 301.567C383.887 302.692 382.965 303.706 381.804 303.706C380.643 303.706 379.794 302.766 379.794 301.586C379.794 300.405 380.679 299.448 381.841 299.448ZM393.277 308.131C394.144 308.131 395.112 307.826 395.725 307.2L396.393 308.002H397.702L396.397 306.411C396.753 305.955 397.149 305.19 397.149 303.872H396.098C396.098 304.517 395.951 305.088 395.706 305.563L393.655 303.061L394.347 302.544C395.121 301.973 395.6 301.346 395.6 300.443C395.6 299.392 394.734 298.47 393.314 298.47C391.932 298.47 391.028 299.337 391.028 300.609C391.028 301.447 391.484 302.093 392.134 302.877C391.033 303.642 390.272 304.351 390.272 305.494C390.272 307.025 391.415 308.131 393.277 308.131ZM395.075 306.411C394.554 306.9 393.895 307.172 393.241 307.172C392.116 307.172 391.379 306.379 391.379 305.494C391.379 305.236 391.618 304.573 392.466 303.945L392.817 303.687L395.075 306.411ZM392.987 302.249C392.526 301.687 392.134 301.152 392.134 300.627C392.134 300.037 392.633 299.41 393.352 299.41C394.033 299.41 394.495 299.963 394.495 300.443C394.495 301.088 394.144 301.439 393.609 301.788L392.987 302.249Z" fill="#477ECB"/>
<path d="M402.538 308.002H408.493V306.988H404.105V306.914L406.225 304.646C407.848 302.909 408.327 302.097 408.327 301.051C408.327 299.595 407.148 298.433 405.488 298.433C403.834 298.433 402.576 299.557 402.576 301.217H403.663C403.663 300.143 404.359 299.429 405.451 299.429C406.475 299.429 407.259 300.056 407.259 301.051C407.259 301.922 406.746 302.568 405.654 303.761L402.538 307.172V308.002V308.002Z" fill="#477ECB"/>
<path d="M413.476 308.131C415.559 308.131 416.758 306.366 416.758 303.282C416.758 300.221 415.541 298.433 413.476 298.433C411.41 298.433 410.195 300.221 410.195 303.282C410.195 306.366 411.393 308.131 413.476 308.131ZM413.476 307.117C412.102 307.117 411.3 305.738 411.3 303.282C411.3 300.83 412.112 299.429 413.476 299.429C414.839 299.429 415.651 300.83 415.651 303.282C415.651 305.738 414.85 307.117 413.476 307.117Z" fill="#477ECB"/>
<path d="M418.509 308.002H424.464V306.988H420.076V306.914L422.196 304.646C423.819 302.909 424.298 302.097 424.298 301.051C424.298 299.595 423.119 298.433 421.459 298.433C419.804 298.433 418.546 299.557 418.546 301.217H419.634C419.634 300.143 420.33 299.429 421.422 299.429C422.445 299.429 423.229 300.056 423.229 301.051C423.229 301.922 422.717 302.568 421.625 303.761L418.509 307.172V308.002V308.002Z" fill="#477ECB"/>
<path d="M429.446 308.131C431.53 308.131 432.728 306.366 432.728 303.282C432.728 300.221 431.512 298.433 429.446 298.433C427.381 298.433 426.165 300.221 426.165 303.282C426.165 306.366 427.364 308.131 429.446 308.131ZM429.446 307.117C428.073 307.117 427.271 305.738 427.271 303.282C427.271 300.83 428.083 299.429 429.446 299.429C430.81 299.429 431.622 300.83 431.622 303.282C431.622 305.738 430.82 307.117 429.446 307.117Z" fill="#477ECB"/>
</g>
</g>
<defs>
<clipPath id="clip0_2102_10">
<rect width="432.66" height="310.64" fill="white" transform="translate(0.984741 0.678528)"/>
</clipPath>
<clipPath id="clip1_2102_10">
<rect width="432.646" height="310.64" fill="white" transform="translate(0.991638 0.678528)"/>
</clipPath>
</defs>
</svg>
