<svg width="131" height="18" viewBox="0 0 131 18" fill="none" xmlns="http://www.w3.org/2000/svg">
<g clip-path="url(#clip0_2102_182)">
<path fill-rule="evenodd" clip-rule="evenodd" d="M15.063 4.83078C15.9989 6.04413 16.7749 7.40708 17.3763 8.8767V1.10403H10.7759C12.3637 1.96187 13.8182 3.21687 15.063 4.83078ZM5.54769 1.93212C4.32498 1.93212 3.14882 2.19349 2.04724 2.67713V16.4331H16.7016C16.5881 8.41049 11.6283 1.93212 5.54769 1.93212Z" fill="#387ED1"/>
<path d="M26.1334 14.0635L34.3215 4.15058H26.3908V1.9895H37.4937V3.79359L29.3056 13.7067H37.4937V15.8676H26.1334V14.0635ZM40.5466 1.9895H50.8167V4.1901H42.9654V7.75876H49.9249V9.95958H42.9654V13.6668H50.9155V15.8674H40.5466V1.9895ZM53.8301 1.9895H60.0159C60.8882 1.9895 61.6615 2.11189 62.3357 2.35627C63.01 2.60064 63.5712 2.94105 64.0208 3.37731C64.3908 3.76086 64.6753 4.20349 64.8736 4.70562C65.0718 5.20775 65.1706 5.76321 65.1706 6.37095V6.41069C65.1706 6.97911 65.0882 7.49123 64.9231 7.94724C64.758 8.40326 64.5293 8.80658 64.2388 9.15656C63.9483 9.50654 63.6011 9.80446 63.198 10.0486C62.7949 10.2928 62.3487 10.4817 61.8599 10.6136L65.6069 15.8676H62.732L59.3115 11.0301H59.2719H56.2488V15.8676H53.8299L53.8301 1.9895ZM59.8291 8.86905C60.7035 8.86905 61.4001 8.66038 61.9167 8.24198C62.4332 7.82357 62.6927 7.25621 62.6927 6.53946V6.49972C62.6927 5.74324 62.4403 5.16886 61.9364 4.77723C61.4326 4.3856 60.7233 4.18989 59.8085 4.18989H56.2488V8.86884L59.8291 8.86905ZM74.7865 16.1056C73.7157 16.1056 72.7378 15.9173 71.8526 15.5408C70.9673 15.1642 70.207 14.6521 69.5725 14.004C68.938 13.3559 68.4424 12.6001 68.0859 11.7341C67.7293 10.8682 67.5502 9.94641 67.5502 8.96829V8.92855C67.5502 7.95043 67.7286 7.02862 68.0859 6.1627C68.4431 5.29678 68.9445 4.5369 69.5924 3.88262C70.2403 3.22835 71.0064 2.70965 71.8925 2.3263C72.7786 1.94296 73.7557 1.75129 74.8264 1.75129C75.8972 1.75129 76.8751 1.93956 77.7608 2.31632C78.6465 2.69307 79.4064 3.2054 80.0409 3.85287C80.6754 4.50035 81.1705 5.25726 81.5275 6.12297C81.8845 6.98868 82.0632 7.91069 82.0632 8.8886V8.92834C82.0632 9.90667 81.8847 10.8287 81.5275 11.694C81.1703 12.5593 80.6684 13.3198 80.0209 13.9741C79.3734 14.6283 78.6065 15.1472 77.7208 15.5304C76.8352 15.9135 75.8573 16.1056 74.7865 16.1056ZM74.8262 13.8653C75.5107 13.8653 76.139 13.7365 76.7113 13.4787C77.2835 13.221 77.7742 12.871 78.1822 12.4281C78.5902 11.9853 78.9093 11.4664 79.1397 10.8716C79.37 10.2768 79.485 9.64232 79.485 8.9685V8.92876C79.485 8.25473 79.37 7.61703 79.1397 7.01545C78.9093 6.41387 78.5863 5.8922 78.1722 5.44936C77.758 5.00651 77.2608 4.65313 76.6813 4.38858C76.1018 4.12402 75.4707 3.99206 74.7863 3.99206C74.1018 3.99206 73.4735 4.12083 72.9012 4.37859C72.329 4.63635 71.8383 4.98675 71.4303 5.42938C71.0223 5.87201 70.7032 6.39092 70.4724 6.9857C70.2416 7.58048 70.1271 8.21499 70.1271 8.88903V8.92876C70.1271 9.6028 70.242 10.2405 70.4724 10.8417C70.7027 11.4428 71.0257 11.9655 71.4403 12.4082C71.8549 12.8508 72.3517 13.2046 72.9308 13.4687C73.5098 13.7329 74.1418 13.8653 74.8262 13.8653ZM85.0165 1.9895H90.1916C91.2753 1.9895 92.2696 2.16481 93.1757 2.515C94.0818 2.86519 94.8603 3.35096 95.5148 3.97208C96.1693 4.59321 96.6744 5.32377 97.0318 6.16313C97.3892 7.00249 97.5673 7.91133 97.5673 8.88924V8.92898C97.5673 9.90731 97.3888 10.8193 97.0318 11.6649C96.6748 12.5104 96.1693 13.2448 95.5148 13.8655C94.8603 14.4862 94.0809 14.976 93.1757 15.3325C92.2704 15.6891 91.2753 15.8678 90.1916 15.8678H85.0165V1.9895ZM90.1716 13.667C90.8984 13.667 91.5594 13.5512 92.1542 13.3187C92.749 13.0862 93.2549 12.7616 93.6708 12.3436C94.0866 11.9256 94.4107 11.4273 94.6423 10.8497C94.8739 10.2722 94.9897 9.64551 94.9897 8.96829V8.92855C94.9897 8.25154 94.8735 7.62128 94.6423 7.03734C94.4111 6.4534 94.0871 5.95233 93.6708 5.53414C93.2545 5.11595 92.749 4.78743 92.1542 4.54837C91.5594 4.30931 90.8984 4.18989 90.1716 4.18989H87.4353V13.6668L90.1716 13.667ZM100.521 1.9895H102.94V7.75897H109.602V1.9895H112.021V15.8678H109.602V10.0191H102.94V15.8676H100.521V1.9895ZM120.506 1.89026H122.766L128.872 15.8676H126.295L124.887 12.517H118.325L116.897 15.8676H114.399L120.506 1.89026ZM123.995 10.3563L121.596 4.80486L119.217 10.3563H123.995Z" fill="#387ED1"/>
</g>
<defs>
<clipPath id="clip0_2102_182">
<rect width="129.41" height="17" fill="white" transform="translate(0.984741 0.268539)"/>
</clipPath>
</defs>
</svg>
